<svg width="1512" height="1233" viewBox="0 0 1512 1233" fill="none" xmlns="http://www.w3.org/2000/svg">
<g opacity="0.12" clip-path="url(#clip0_114_4182)">
<path d="M-32.3681 -5.60036L-24.2985 136.126C-24.2985 136.126 -48.7017 137.515 -54.5808 98.2659C-54.5808 98.2659 -53.4294 118.557 -62 -32.0381L-24.1019 -34.1958C-24.1019 -34.1958 6.12579 -43.034 27.0899 -40.7578C70.0683 -36.0914 72.4729 6.13918 72.4729 6.13918L80.5167 129.117L51.4427 130.772L43.9605 17.6581C43.9605 17.6581 41.3969 -8.01801 25.5711 -12.5456C11.765 -16.4953 -12.2697 -9.34991 -20.427 -6.28016C-24.7985 -4.63506 -32.3681 -5.60036 -32.3681 -5.60036Z" fill="#D9DADC"/>
<path d="M54.9913 174.842L63.0609 316.568C63.0609 316.568 87.4641 315.179 88.85 275.516C88.85 275.516 90.0093 295.807 81.4308 145.212L43.5327 147.369C43.5327 147.369 12.4971 142.019 -8.07316 146.66C-50.2441 156.173 -47.8397 198.404 -47.8397 198.404L-41.8726 321.5L-12.7986 319.845L-18.2041 206.613C-18.2041 206.613 -18.5715 180.811 -3.36184 174.517C9.90666 169.026 34.5971 173.397 43.0501 175.522C47.5801 176.66 54.9913 174.842 54.9913 174.842Z" fill="#DEDEDE"/>
<path d="M125.463 -14.5856L133.532 127.141C133.532 127.141 109.129 128.53 103.25 89.2806C103.25 89.2806 104.401 109.572 95.8307 -41.0234L133.729 -43.1811C133.729 -43.1811 163.957 -52.0192 184.921 -49.7431C227.899 -45.0767 230.304 -2.84611 230.304 -2.84611L238.348 120.132L209.273 121.787L201.791 8.67281C201.791 8.67281 199.228 -17.0033 183.402 -21.5308C169.596 -25.4806 145.561 -18.3352 137.404 -15.2654C133.032 -13.6203 125.463 -14.5856 125.463 -14.5856Z" fill="#D9DADC"/>
<path d="M212.822 165.856L220.892 307.583C220.892 307.583 245.295 306.194 246.681 266.531C246.681 266.531 247.84 286.821 239.262 136.227L201.363 138.384C201.363 138.384 170.328 133.034 149.758 137.674C107.587 147.188 109.991 189.419 109.991 189.419L115.958 312.515L145.032 310.86L139.627 197.627C139.627 197.627 139.259 171.826 154.469 165.532C167.737 160.041 192.428 164.412 200.881 166.536C205.411 167.675 212.822 165.856 212.822 165.856Z" fill="#DEDEDE"/>
<path d="M283.293 -23.5709L291.363 118.155C291.363 118.155 266.96 119.545 261.081 80.2953C261.081 80.2953 262.232 100.587 253.661 -50.0086L291.56 -52.1664C291.56 -52.1664 321.787 -61.0045 342.751 -58.7283C385.73 -54.062 388.134 -11.8314 388.134 -11.8314L396.178 111.147L367.104 112.802L359.622 -0.312477C359.622 -0.312477 357.058 -25.9886 341.233 -30.5161C327.427 -34.4658 303.392 -27.3205 295.235 -24.2507C290.863 -22.6056 283.293 -23.5709 283.293 -23.5709Z" fill="#D9DADC"/>
<path d="M370.653 156.871L378.722 298.598C378.722 298.598 403.126 297.208 404.512 257.545C404.512 257.545 405.671 277.836 397.092 127.241L359.194 129.399C359.194 129.399 328.159 124.048 307.588 128.689C265.417 138.203 267.822 180.433 267.822 180.433L273.789 303.53L302.863 301.875L297.457 188.642C297.457 188.642 297.09 162.841 312.3 156.547C325.568 151.055 350.259 155.427 358.712 157.551C363.242 158.689 370.653 156.871 370.653 156.871Z" fill="#DEDEDE"/>
<path d="M441.124 -32.5562L449.194 109.17C449.194 109.17 424.79 110.559 418.911 71.31C418.911 71.31 420.063 91.6013 411.492 -58.9939L449.39 -61.1516C449.39 -61.1516 479.618 -69.9898 500.582 -67.7136C543.56 -63.0472 545.965 -20.8167 545.965 -20.8167L554.009 102.161L524.935 103.817L517.453 -9.29775C517.453 -9.29775 514.889 -34.9739 499.063 -39.5014C485.257 -43.4511 461.223 -36.3058 453.065 -33.236C448.694 -31.5909 441.124 -32.5562 441.124 -32.5562Z" fill="#D9DADC"/>
<path d="M528.484 147.886L536.553 289.612C536.553 289.612 560.956 288.223 562.342 248.56C562.342 248.56 563.502 268.851 554.923 118.256L517.025 120.413C517.025 120.413 485.989 115.063 465.419 119.704C423.248 129.218 425.652 171.448 425.652 171.448L431.62 294.544L460.694 292.889L455.288 179.657C455.288 179.657 454.921 153.856 470.13 147.561C483.399 142.07 508.089 146.442 516.542 148.566C521.072 149.704 528.484 147.886 528.484 147.886Z" fill="#DEDEDE"/>
<path d="M598.955 -41.5415L607.024 100.185C607.024 100.185 582.621 101.574 576.742 62.3248C576.742 62.3248 577.894 82.616 569.323 -67.9792L607.221 -70.1369C607.221 -70.1369 637.449 -78.9751 658.413 -76.6989C701.391 -72.0325 703.796 -29.802 703.796 -29.802L711.84 93.1761L682.766 94.8313L675.284 -18.283C675.284 -18.283 672.72 -43.9591 656.894 -48.4867C643.088 -52.4364 619.053 -45.291 610.896 -42.2213C606.524 -40.5762 598.955 -41.5415 598.955 -41.5415Z" fill="#D9DADC"/>
<path d="M686.314 138.901L694.384 280.627C694.384 280.627 718.787 279.238 720.173 239.575C720.173 239.575 721.332 259.866 712.754 109.271L674.856 111.428C674.856 111.428 643.82 106.078 623.25 110.718C581.079 120.232 583.483 162.463 583.483 162.463L589.45 285.559L618.524 283.904L613.119 170.671C613.119 170.671 612.751 144.87 627.961 138.576C641.23 133.085 665.92 137.456 674.373 139.58C678.903 140.719 686.314 138.901 686.314 138.901Z" fill="#DEDEDE"/>
<path d="M756.786 -50.5268L764.855 91.1996C764.855 91.1996 740.452 92.5889 734.573 53.3395C734.573 53.3395 735.724 73.6307 727.154 -76.9645L765.052 -79.1222C765.052 -79.1222 795.28 -87.9604 816.244 -85.6842C859.222 -81.0178 861.627 -38.7872 861.627 -38.7872L869.67 84.1908L840.596 85.846L833.114 -27.2683C833.114 -27.2683 830.551 -52.9444 814.725 -57.472C800.919 -61.4217 776.884 -54.2763 768.727 -51.2066C764.355 -49.5615 756.786 -50.5268 756.786 -50.5268Z" fill="#D9DADC"/>
<path d="M844.145 129.915L852.215 271.642C852.215 271.642 876.618 270.252 878.004 230.589C878.004 230.589 879.163 250.88 870.585 100.286L832.686 102.443C832.686 102.443 801.651 97.0924 781.081 101.733C738.91 111.247 741.314 153.478 741.314 153.478L747.281 276.574L776.355 274.919L770.95 161.686C770.95 161.686 770.582 135.885 785.792 129.591C799.06 124.1 823.751 128.471 832.204 130.595C836.734 131.734 844.145 129.915 844.145 129.915Z" fill="#DEDEDE"/>
<path d="M914.616 -59.512L922.686 82.2143C922.686 82.2143 898.283 83.6036 892.404 44.3542C892.404 44.3542 893.555 64.6454 884.984 -85.9498L922.883 -88.1075C922.883 -88.1075 953.11 -96.9457 974.074 -94.6695C1017.05 -90.0031 1019.46 -47.7725 1019.46 -47.7725L1027.5 75.2055L998.427 76.8607L990.945 -36.2536C990.945 -36.2536 988.381 -61.9297 972.556 -66.4573C958.75 -70.407 934.715 -63.2616 926.558 -60.1918C922.186 -58.5468 914.616 -59.512 914.616 -59.512Z" fill="#D9DADC"/>
<path d="M1001.98 120.93L1010.05 262.656C1010.05 262.656 1034.45 261.267 1035.83 221.604C1035.83 221.604 1036.99 241.895 1028.42 91.3002L990.517 93.4576C990.517 93.4576 959.482 88.1071 938.911 92.7478C896.74 102.262 899.145 144.492 899.145 144.492L905.112 267.589L934.186 265.933L928.78 152.701C928.78 152.701 928.413 126.9 943.623 120.605C956.891 115.114 981.582 119.486 990.035 121.61C994.565 122.748 1001.98 120.93 1001.98 120.93Z" fill="#DEDEDE"/>
<path d="M1072.45 -68.4973L1080.52 73.229C1080.52 73.229 1056.11 74.6183 1050.23 35.3689C1050.23 35.3689 1051.39 55.6601 1042.82 -94.935L1080.71 -97.0928C1080.71 -97.0928 1110.94 -105.931 1131.91 -103.655C1174.88 -98.9884 1177.29 -56.7578 1177.29 -56.7578L1185.33 66.2202L1156.26 67.8754L1148.78 -45.2389C1148.78 -45.2389 1146.21 -70.915 1130.39 -75.4425C1116.58 -79.3922 1092.55 -72.2469 1084.39 -69.1771C1080.02 -67.532 1072.45 -68.4973 1072.45 -68.4973Z" fill="#D9DADC"/>
<path d="M1159.81 111.945L1167.88 253.671C1167.88 253.671 1192.28 252.282 1193.67 212.619C1193.67 212.619 1194.82 232.91 1186.25 82.3149L1148.35 84.4723C1148.35 84.4723 1117.31 79.1218 1096.74 83.7626C1054.57 93.2765 1056.98 135.507 1056.98 135.507L1062.94 258.603L1092.02 256.948L1086.61 143.716C1086.61 143.716 1086.24 117.914 1101.45 111.62C1114.72 106.129 1139.41 110.5 1147.87 112.625C1152.4 113.763 1159.81 111.945 1159.81 111.945Z" fill="#DEDEDE"/>
<path d="M1230.28 -77.4826L1238.35 64.2437C1238.35 64.2437 1213.94 65.633 1208.07 26.3836C1208.07 26.3836 1209.22 46.6749 1200.65 -103.92L1238.54 -106.078C1238.54 -106.078 1268.77 -114.916 1289.74 -112.64C1332.71 -107.974 1335.12 -65.7431 1335.12 -65.7431L1343.16 57.235L1314.09 58.8902L1306.61 -54.2242C1306.61 -54.2242 1304.04 -79.9003 1288.22 -84.4278C1274.41 -88.3775 1250.38 -81.2322 1242.22 -78.1624C1237.85 -76.5173 1230.28 -77.4826 1230.28 -77.4826Z" fill="#D9DADC"/>
<path d="M1317.64 102.96L1325.71 244.686C1325.71 244.686 1350.11 243.297 1351.5 203.634C1351.5 203.634 1352.66 223.924 1344.08 73.3297L1306.18 75.487C1306.18 75.487 1275.14 70.1366 1254.57 74.7773C1212.4 84.2912 1214.81 126.522 1214.81 126.522L1220.77 249.618L1249.85 247.963L1244.44 134.73C1244.44 134.73 1244.07 108.929 1259.28 102.635C1272.55 97.1438 1297.24 101.515 1305.7 103.639C1310.23 104.778 1317.64 102.96 1317.64 102.96Z" fill="#DEDEDE"/>
<path d="M1388.11 -86.4679L1396.18 55.2585C1396.18 55.2585 1371.77 56.6477 1365.9 17.3983C1365.9 17.3983 1367.05 37.6896 1358.48 -112.906L1396.37 -115.063C1396.37 -115.063 1426.6 -123.901 1447.57 -121.625C1490.54 -116.959 1492.95 -74.7284 1492.95 -74.7284L1500.99 48.2497L1471.92 49.9049L1464.44 -63.2094C1464.44 -63.2094 1461.87 -88.8855 1446.05 -93.4131C1432.24 -97.3628 1408.21 -90.2174 1400.05 -87.1477C1395.68 -85.5026 1388.11 -86.4679 1388.11 -86.4679Z" fill="#D9DADC"/>
<path d="M1475.47 93.9742L1483.54 235.701C1483.54 235.701 1507.94 234.311 1509.33 194.648C1509.33 194.648 1510.49 214.939 1501.91 64.3444L1464.01 66.5017C1464.01 66.5017 1432.97 61.1513 1412.4 65.792C1370.23 75.3059 1372.64 117.537 1372.64 117.537L1378.6 240.633L1407.68 238.978L1402.27 125.745C1402.27 125.745 1401.91 99.9439 1417.11 93.6495C1430.38 88.1585 1455.07 92.5299 1463.53 94.6541C1468.06 95.7924 1475.47 93.9742 1475.47 93.9742Z" fill="#DEDEDE"/>
<path d="M-10.4945 378.566L-2.42493 520.293C-2.42493 520.293 -26.8282 521.682 -32.7072 482.432C-32.7072 482.432 -31.5558 502.724 -40.1264 352.129L-2.22831 349.971C-2.22831 349.971 27.9994 341.133 48.9635 343.409C91.9418 348.075 94.3465 390.306 94.3465 390.306L102.39 513.284L73.3163 514.939L65.8341 401.825C65.8341 401.825 63.2705 376.149 47.4447 371.621C33.6386 367.671 9.60389 374.817 1.44662 377.886C-2.9249 379.531 -10.4945 378.566 -10.4945 378.566Z" fill="#D9DADC"/>
<path d="M76.8649 559.008L84.9344 700.735C84.9344 700.735 109.338 699.345 110.724 659.682C110.724 659.682 111.883 679.973 103.304 529.378L65.4063 531.536C65.4063 531.536 34.3707 526.185 13.8004 530.826C-28.3705 540.34 -25.9662 582.571 -25.9662 582.571L-19.9991 705.667L9.07501 704.012L3.66953 590.779C3.66953 590.779 3.30209 564.978 18.5117 558.684C31.7802 553.193 56.4707 557.564 64.9237 559.688C69.4537 560.826 76.8649 559.008 76.8649 559.008Z" fill="#DEDEDE"/>
<path d="M147.336 369.581L155.406 511.307C155.406 511.307 131.003 512.697 125.124 473.447C125.124 473.447 126.275 493.738 117.704 343.143L155.602 340.986C155.602 340.986 185.83 332.147 206.794 334.424C249.773 339.09 252.177 381.32 252.177 381.32L260.221 504.299L231.147 505.954L223.665 392.839C223.665 392.839 221.101 367.163 205.275 362.636C191.469 358.686 167.435 365.831 159.277 368.901C154.906 370.546 147.336 369.581 147.336 369.581Z" fill="#D9DADC"/>
<path d="M234.695 550.023L242.765 691.749C242.765 691.749 267.168 690.36 268.554 650.697C268.554 650.697 269.713 670.988 261.135 520.393L223.237 522.55C223.237 522.55 192.201 517.2 171.631 521.841C129.46 531.355 131.864 573.585 131.864 573.585L137.831 696.681L166.906 695.026L161.5 581.794C161.5 581.794 161.133 555.993 176.342 549.698C189.611 544.207 214.301 548.579 222.754 550.703C227.284 551.841 234.695 550.023 234.695 550.023Z" fill="#DEDEDE"/>
<path d="M305.167 360.596L313.237 502.322C313.237 502.322 288.833 503.711 282.954 464.462C282.954 464.462 284.106 484.753 275.535 334.158L313.433 332C313.433 332 343.661 323.162 364.625 325.438C407.603 330.105 410.008 372.335 410.008 372.335L418.052 495.313L388.978 496.968L381.496 383.854C381.496 383.854 378.932 358.178 363.106 353.65C349.3 349.701 325.265 356.846 317.108 359.916C312.737 361.561 305.167 360.596 305.167 360.596Z" fill="#D9DADC"/>
<path d="M392.526 541.038L400.596 682.764C400.596 682.764 424.999 681.375 426.385 641.712C426.385 641.712 427.544 662.003 418.966 511.408L381.068 513.565C381.068 513.565 350.032 508.215 329.462 512.856C287.291 522.37 289.695 564.6 289.695 564.6L295.662 687.696L324.736 686.041L319.331 572.809C319.331 572.809 318.964 547.008 334.173 540.713C347.442 535.222 372.132 539.593 380.585 541.718C385.115 542.856 392.526 541.038 392.526 541.038Z" fill="#DEDEDE"/>
<path d="M462.998 351.61L471.067 493.337C471.067 493.337 446.664 494.726 440.785 455.477C440.785 455.477 441.936 475.768 433.366 325.173L471.264 323.015C471.264 323.015 501.492 314.177 522.456 316.453C565.434 321.119 567.839 363.35 567.839 363.35L575.883 486.328L546.808 487.983L539.326 374.869C539.326 374.869 536.763 349.193 520.937 344.665C507.131 340.715 483.096 347.861 474.939 350.931C470.567 352.576 462.998 351.61 462.998 351.61Z" fill="#D9DADC"/>
<path d="M550.357 532.052L558.427 673.779C558.427 673.779 582.83 672.39 584.216 632.727C584.216 632.727 585.375 653.017 576.797 502.423L538.898 504.58C538.898 504.58 507.863 499.23 487.293 503.87C445.122 513.384 447.526 555.615 447.526 555.615L453.493 678.711L482.567 677.056L477.162 563.823C477.162 563.823 476.794 538.022 492.004 531.728C505.273 526.237 529.963 530.608 538.416 532.732C542.946 533.871 550.357 532.052 550.357 532.052Z" fill="#DEDEDE"/>
<path d="M620.828 342.625L628.898 484.351C628.898 484.351 604.495 485.741 598.616 446.491C598.616 446.491 599.767 466.783 591.197 316.187L629.095 314.03C629.095 314.03 659.322 305.191 680.286 307.468C723.265 312.134 725.669 354.365 725.669 354.365L733.713 477.343L704.639 478.998L697.157 365.884C697.157 365.884 694.594 340.207 678.768 335.68C664.962 331.73 640.927 338.876 632.77 341.945C628.398 343.59 620.828 342.625 620.828 342.625Z" fill="#D9DADC"/>
<path d="M708.188 523.067L716.257 664.794C716.257 664.794 740.661 663.404 742.047 623.741C742.047 623.741 743.206 644.032 734.627 493.437L696.729 495.595C696.729 495.595 665.694 490.244 645.123 494.885C602.952 504.399 605.357 546.63 605.357 546.63L611.324 669.726L640.398 668.071L634.993 554.838C634.993 554.838 634.625 529.037 649.835 522.743C663.103 517.251 687.794 521.623 696.247 523.747C700.777 524.885 708.188 523.067 708.188 523.067Z" fill="#DEDEDE"/>
<path d="M778.659 333.64L786.729 475.366C786.729 475.366 762.326 476.755 756.447 437.506C756.447 437.506 757.598 457.797 749.027 307.202L786.925 305.044C786.925 305.044 817.153 296.206 838.117 298.482C881.096 303.149 883.5 345.379 883.5 345.379L891.544 468.357L862.47 470.013L854.988 356.898C854.988 356.898 852.424 331.222 836.598 326.695C822.792 322.745 798.758 329.89 790.6 332.96C786.229 334.605 778.659 333.64 778.659 333.64Z" fill="#D9DADC"/>
<path d="M866.019 514.082L874.088 655.808C874.088 655.808 898.491 654.419 899.877 614.756C899.877 614.756 901.037 635.047 892.458 484.452L854.56 486.609C854.56 486.609 823.524 481.259 802.954 485.9C760.783 495.414 763.188 537.644 763.188 537.644L769.155 660.741L798.229 659.085L792.823 545.853C792.823 545.853 792.456 520.052 807.665 513.757C820.934 508.266 845.624 512.638 854.077 514.762C858.607 515.9 866.019 514.082 866.019 514.082Z" fill="#DEDEDE"/>
<path d="M936.49 324.655L944.56 466.381C944.56 466.381 920.156 467.77 914.277 428.521C914.277 428.521 915.429 448.812 906.858 298.217L944.756 296.059C944.756 296.059 974.984 287.221 995.948 289.497C1038.93 294.163 1041.33 336.394 1041.33 336.394L1049.37 459.372L1020.3 461.027L1012.82 347.913C1012.82 347.913 1010.26 322.237 994.429 317.709C980.623 313.76 956.588 320.905 948.431 323.975C944.06 325.62 936.49 324.655 936.49 324.655Z" fill="#D9DADC"/>
<path d="M1023.85 505.097L1031.92 646.823C1031.92 646.823 1056.32 645.434 1057.71 605.771C1057.71 605.771 1058.87 626.062 1050.29 475.467L1012.39 477.624C1012.39 477.624 981.355 472.274 960.785 476.914C918.614 486.428 921.018 528.659 921.018 528.659L926.985 651.755L956.06 650.1L950.654 536.867C950.654 536.867 950.287 511.066 965.496 504.772C978.765 499.281 1003.46 503.652 1011.91 505.776C1016.44 506.915 1023.85 505.097 1023.85 505.097Z" fill="#DEDEDE"/>
<path d="M1094.32 315.669L1102.39 457.396C1102.39 457.396 1077.99 458.785 1072.11 419.535C1072.11 419.535 1073.26 439.827 1064.69 289.232L1102.59 287.074C1102.59 287.074 1132.81 278.236 1153.78 280.512C1196.76 285.178 1199.16 327.409 1199.16 327.409L1207.21 450.387L1178.13 452.042L1170.65 338.928C1170.65 338.928 1168.09 313.252 1152.26 308.724C1138.45 304.774 1114.42 311.92 1106.26 314.989C1101.89 316.635 1094.32 315.669 1094.32 315.669Z" fill="#D9DADC"/>
<path d="M1181.68 496.111L1189.75 637.838C1189.75 637.838 1214.15 636.448 1215.54 596.785C1215.54 596.785 1216.7 617.076 1208.12 466.482L1170.22 468.639C1170.22 468.639 1139.19 463.288 1118.62 467.929C1076.44 477.443 1078.85 519.674 1078.85 519.674L1084.82 642.77L1113.89 641.115L1108.48 527.882C1108.48 527.882 1108.12 502.081 1123.33 495.787C1136.6 490.296 1161.29 494.667 1169.74 496.791C1174.27 497.93 1181.68 496.111 1181.68 496.111Z" fill="#DEDEDE"/>
<path d="M1252.15 306.684L1260.22 448.41C1260.22 448.41 1235.82 449.8 1229.94 410.55C1229.94 410.55 1231.09 430.841 1222.52 280.246L1260.42 278.089C1260.42 278.089 1290.65 269.25 1311.61 271.527C1354.59 276.193 1356.99 318.423 1356.99 318.423L1365.04 441.402L1335.96 443.057L1328.48 329.942C1328.48 329.942 1325.92 304.266 1310.09 299.739C1296.28 295.789 1272.25 302.934 1264.09 306.004C1259.72 307.649 1252.15 306.684 1252.15 306.684Z" fill="#D9DADC"/>
<path d="M1339.51 487.126L1347.58 628.852C1347.58 628.852 1371.98 627.463 1373.37 587.8C1373.37 587.8 1374.53 608.091 1365.95 457.496L1328.05 459.654C1328.05 459.654 1297.02 454.303 1276.45 458.944C1234.28 468.458 1236.68 510.688 1236.68 510.688L1242.65 633.785L1271.72 632.13L1266.32 518.897C1266.32 518.897 1265.95 493.096 1281.16 486.801C1294.43 481.31 1319.12 485.682 1327.57 487.806C1332.1 488.944 1339.51 487.126 1339.51 487.126Z" fill="#DEDEDE"/>
<path d="M1409.98 297.699L1418.05 439.425C1418.05 439.425 1393.65 440.814 1387.77 401.565C1387.77 401.565 1388.92 421.856 1380.35 271.261L1418.25 269.103C1418.25 269.103 1448.48 260.265 1469.44 262.541C1512.42 267.208 1514.82 309.438 1514.82 309.438L1522.87 432.416L1493.79 434.071L1486.31 320.957C1486.31 320.957 1483.75 295.281 1467.92 290.753C1454.12 286.804 1430.08 293.949 1421.92 297.019C1417.55 298.664 1409.98 297.699 1409.98 297.699Z" fill="#D9DADC"/>
<path d="M1497.34 478.141L1505.41 619.867C1505.41 619.867 1529.81 618.478 1531.2 578.815C1531.2 578.815 1532.36 599.106 1523.78 448.511L1485.88 450.668C1485.88 450.668 1454.85 445.318 1434.28 449.959C1392.11 459.472 1394.51 501.703 1394.51 501.703L1400.48 624.799L1429.55 623.144L1424.15 509.912C1424.15 509.912 1423.78 484.11 1438.99 477.816C1452.26 472.325 1476.95 476.697 1485.4 478.821C1489.93 479.959 1497.34 478.141 1497.34 478.141Z" fill="#DEDEDE"/>
<path d="M11.3791 762.733L19.4487 904.459C19.4487 904.459 -4.95457 905.848 -10.8336 866.599C-10.8336 866.599 -9.68225 886.89 -18.2528 736.295L19.6453 734.137C19.6453 734.137 49.873 725.299 70.8371 727.575C113.815 732.242 116.22 774.472 116.22 774.472L124.264 897.45L95.1898 899.106L87.7077 785.991C87.7077 785.991 85.1441 760.315 69.3183 755.788C55.5122 751.838 31.4775 758.983 23.3202 762.053C18.9487 763.698 11.3791 762.733 11.3791 762.733Z" fill="#D9DADC"/>
<path d="M98.7384 943.175L106.808 1084.9C106.808 1084.9 131.211 1083.51 132.597 1043.85C132.597 1043.85 133.757 1064.14 125.178 913.545L87.2799 915.702C87.2799 915.702 56.2443 910.352 35.674 914.993C-6.49694 924.507 -4.09258 966.737 -4.09258 966.737L1.87453 1089.83L30.9486 1088.18L25.5431 974.946C25.5431 974.946 25.1757 949.145 40.3853 942.85C53.6538 937.359 78.3443 941.731 86.7973 943.855C91.3273 944.993 98.7384 943.175 98.7384 943.175Z" fill="#DEDEDE"/>
<path d="M169.21 753.747L177.279 895.474C177.279 895.474 152.876 896.863 146.997 857.614C146.997 857.614 148.148 877.905 139.578 727.31L177.476 725.152C177.476 725.152 207.704 716.314 228.668 718.59C271.646 723.256 274.051 765.487 274.051 765.487L282.095 888.465L253.021 890.12L245.538 777.006C245.538 777.006 242.975 751.33 227.149 746.802C213.343 742.853 189.308 749.998 181.151 753.068C176.779 754.713 169.21 753.747 169.21 753.747Z" fill="#D9DADC"/>
<path d="M256.569 934.19L264.639 1075.92C264.639 1075.92 289.042 1074.53 290.428 1034.86C290.428 1034.86 291.587 1055.15 283.009 904.56L245.111 906.717C245.111 906.717 214.075 901.367 193.505 906.007C151.334 915.521 153.738 957.752 153.738 957.752L159.705 1080.85L188.779 1079.19L183.374 965.96C183.374 965.96 183.006 940.159 198.216 933.865C211.485 928.374 236.175 932.745 244.628 934.87C249.158 936.008 256.569 934.19 256.569 934.19Z" fill="#DEDEDE"/>
<path d="M327.041 744.762L335.11 886.489C335.11 886.489 310.707 887.878 304.828 848.628C304.828 848.628 305.979 868.92 297.409 718.325L335.307 716.167C335.307 716.167 365.534 707.329 386.499 709.605C429.477 714.271 431.882 756.502 431.882 756.502L439.925 879.48L410.851 881.135L403.369 768.021C403.369 768.021 400.806 742.345 384.98 737.817C371.174 733.867 347.139 741.013 338.982 744.082C334.61 745.728 327.041 744.762 327.041 744.762Z" fill="#D9DADC"/>
<path d="M414.4 925.204L422.47 1066.93C422.47 1066.93 446.873 1065.54 448.259 1025.88C448.259 1025.88 449.418 1046.17 440.839 895.574L402.941 897.732C402.941 897.732 371.906 892.381 351.336 897.022C309.165 906.536 311.569 948.767 311.569 948.767L317.536 1071.86L346.61 1070.21L341.205 956.975C341.205 956.975 340.837 931.174 356.047 924.88C369.315 919.389 394.006 923.76 402.459 925.884C406.989 927.022 414.4 925.204 414.4 925.204Z" fill="#DEDEDE"/>
<path d="M484.871 735.777L492.941 877.503C492.941 877.503 468.538 878.893 462.659 839.643C462.659 839.643 463.81 859.934 455.239 709.339L493.138 707.182C493.138 707.182 523.365 698.343 544.329 700.62C587.308 705.286 589.712 747.516 589.712 747.516L597.756 870.495L568.682 872.15L561.2 759.035C561.2 759.035 558.636 733.359 542.81 728.832C529.004 724.882 504.97 732.027 496.812 735.097C492.441 736.742 484.871 735.777 484.871 735.777Z" fill="#D9DADC"/>
<path d="M572.231 916.219L580.3 1057.95C580.3 1057.95 604.703 1056.56 606.089 1016.89C606.089 1016.89 607.249 1037.18 598.67 886.589L560.772 888.747C560.772 888.747 529.737 883.396 509.166 888.037C466.995 897.551 469.4 939.781 469.4 939.781L475.367 1062.88L504.441 1061.22L499.035 947.99C499.035 947.99 498.668 922.189 513.878 915.894C527.146 910.403 551.837 914.775 560.29 916.899C564.82 918.037 572.231 916.219 572.231 916.219Z" fill="#DEDEDE"/>
<path d="M642.702 726.792L650.772 868.518C650.772 868.518 626.368 869.907 620.489 830.658C620.489 830.658 621.641 850.949 613.07 700.354L650.968 698.196C650.968 698.196 681.196 689.358 702.16 691.634C745.138 696.301 747.543 738.531 747.543 738.531L755.587 861.509L726.513 863.164L719.031 750.05C719.031 750.05 716.467 724.374 700.641 719.846C686.835 715.897 662.8 723.042 654.643 726.112C650.272 727.757 642.702 726.792 642.702 726.792Z" fill="#D9DADC"/>
<path d="M730.061 907.234L738.131 1048.96C738.131 1048.96 762.534 1047.57 763.92 1007.91C763.92 1007.91 765.08 1028.2 756.501 877.604L718.603 879.761C718.603 879.761 687.567 874.411 666.997 879.052C624.826 888.565 627.23 930.796 627.23 930.796L633.198 1053.89L662.272 1052.24L656.866 939.005C656.866 939.005 656.499 913.203 671.708 906.909C684.977 901.418 709.667 905.789 718.12 907.914C722.65 909.052 730.061 907.234 730.061 907.234Z" fill="#DEDEDE"/>
<path d="M800.533 717.806L808.602 859.533C808.602 859.533 784.199 860.922 778.32 821.673C778.32 821.673 779.471 841.964 770.901 691.369L808.799 689.211C808.799 689.211 839.027 680.373 859.991 682.649C902.969 687.315 905.374 729.546 905.374 729.546L913.418 852.524L884.344 854.179L876.861 741.065C876.861 741.065 874.298 715.389 858.472 710.861C844.666 706.911 820.631 714.057 812.474 717.127C808.102 718.772 800.533 717.806 800.533 717.806Z" fill="#D9DADC"/>
<path d="M887.892 898.249L895.962 1039.97C895.962 1039.97 920.365 1038.59 921.751 998.923C921.751 998.923 922.91 1019.21 914.332 868.619L876.434 870.776C876.434 870.776 845.398 865.426 824.828 870.066C782.657 879.58 785.061 921.811 785.061 921.811L791.028 1044.91L820.102 1043.25L814.697 930.019C814.697 930.019 814.329 904.218 829.539 897.924C842.808 892.433 867.498 896.804 875.951 898.928C880.481 900.067 887.892 898.249 887.892 898.249Z" fill="#DEDEDE"/>
<path d="M958.364 708.821L966.433 850.547C966.433 850.547 942.03 851.937 936.151 812.687C936.151 812.687 937.302 832.979 928.732 682.383L966.63 680.226C966.63 680.226 996.857 671.388 1017.82 673.664C1060.8 678.33 1063.2 720.561 1063.2 720.561L1071.25 843.539L1042.17 845.194L1034.69 732.08C1034.69 732.08 1032.13 706.404 1016.3 701.876C1002.5 697.926 978.462 705.072 970.305 708.141C965.933 709.786 958.364 708.821 958.364 708.821Z" fill="#D9DADC"/>
<path d="M1045.72 889.263L1053.79 1030.99C1053.79 1030.99 1078.2 1029.6 1079.58 989.937C1079.58 989.937 1080.74 1010.23 1072.16 859.633L1034.26 861.791C1034.26 861.791 1003.23 856.44 982.659 861.081C940.488 870.595 942.892 912.826 942.892 912.826L948.859 1035.92L977.933 1034.27L972.528 921.034C972.528 921.034 972.16 895.233 987.37 888.939C1000.64 883.447 1025.33 887.819 1033.78 889.943C1038.31 891.081 1045.72 889.263 1045.72 889.263Z" fill="#DEDEDE"/>
<path d="M1116.19 699.836L1124.26 841.562C1124.26 841.562 1099.86 842.951 1093.98 803.702C1093.98 803.702 1095.13 823.993 1086.56 673.398L1124.46 671.24C1124.46 671.24 1154.69 662.402 1175.65 664.678C1218.63 669.345 1221.04 711.575 1221.04 711.575L1229.08 834.553L1200.01 836.209L1192.52 723.094C1192.52 723.094 1189.96 697.418 1174.13 692.891C1160.33 688.941 1136.29 696.086 1128.14 699.156C1123.76 700.801 1116.19 699.836 1116.19 699.836Z" fill="#D9DADC"/>
<path d="M1203.55 880.278L1211.62 1022C1211.62 1022 1236.03 1020.62 1237.41 980.952C1237.41 980.952 1238.57 1001.24 1229.99 850.648L1192.09 852.805C1192.09 852.805 1161.06 847.455 1140.49 852.096C1098.32 861.61 1100.72 903.84 1100.72 903.84L1106.69 1026.94L1135.76 1025.28L1130.36 912.049C1130.36 912.049 1129.99 886.248 1145.2 879.953C1158.47 874.462 1183.16 878.834 1191.61 880.958C1196.14 882.096 1203.55 880.278 1203.55 880.278Z" fill="#DEDEDE"/>
<path d="M1274.02 690.851L1282.09 832.577C1282.09 832.577 1257.69 833.966 1251.81 794.717C1251.81 794.717 1252.96 815.008 1244.39 664.413L1282.29 662.255C1282.29 662.255 1312.52 653.417 1333.48 655.693C1376.46 660.359 1378.87 702.59 1378.87 702.59L1386.91 825.568L1357.84 827.223L1350.35 714.109C1350.35 714.109 1347.79 688.433 1331.96 683.905C1318.16 679.956 1294.12 687.101 1285.97 690.171C1281.59 691.816 1274.02 690.851 1274.02 690.851Z" fill="#D9DADC"/>
<path d="M1361.38 871.293L1369.45 1013.02C1369.45 1013.02 1393.86 1011.63 1395.24 971.967C1395.24 971.967 1396.4 992.258 1387.82 841.663L1349.93 843.82C1349.93 843.82 1318.89 838.47 1298.32 843.11C1256.15 852.624 1258.55 894.855 1258.55 894.855L1264.52 1017.95L1293.59 1016.3L1288.19 903.063C1288.19 903.063 1287.82 877.262 1303.03 870.968C1316.3 865.477 1340.99 869.848 1349.44 871.973C1353.97 873.111 1361.38 871.293 1361.38 871.293Z" fill="#DEDEDE"/>
<path d="M1431.86 681.865L1439.93 823.592C1439.93 823.592 1415.52 824.981 1409.64 785.731C1409.64 785.731 1410.79 806.023 1402.22 655.428L1440.12 653.27C1440.12 653.27 1470.35 644.432 1491.31 646.708C1534.29 651.374 1536.7 693.605 1536.7 693.605L1544.74 816.583L1515.67 818.238L1508.18 705.124C1508.18 705.124 1505.62 679.448 1489.79 674.92C1475.99 670.97 1451.95 678.116 1443.8 681.185C1439.43 682.831 1431.86 681.865 1431.86 681.865Z" fill="#D9DADC"/>
<path d="M1519.22 862.307L1527.28 1004.03C1527.28 1004.03 1551.69 1002.64 1553.07 962.982C1553.07 962.982 1554.23 983.272 1545.65 832.678L1507.76 834.835C1507.76 834.835 1476.72 829.484 1456.15 834.125C1413.98 843.639 1416.38 885.87 1416.38 885.87L1422.35 1008.97L1451.43 1007.31L1446.02 894.078C1446.02 894.078 1445.65 868.277 1460.86 861.983C1474.13 856.492 1498.82 860.863 1507.27 862.987C1511.8 864.126 1519.22 862.307 1519.22 862.307Z" fill="#DEDEDE"/>
<path d="M33.2527 1146.9L41.3222 1288.63C41.3222 1288.63 16.919 1290.02 11.04 1250.77C11.04 1250.77 12.1913 1271.06 3.62076 1120.46L41.5189 1118.3C41.5189 1118.3 71.7466 1109.47 92.7107 1111.74C135.689 1116.41 138.094 1158.64 138.094 1158.64L146.137 1281.62L117.063 1283.27L109.581 1170.16C109.581 1170.16 107.018 1144.48 91.1918 1139.95C77.3858 1136 53.3511 1143.15 45.1938 1146.22C40.8223 1147.86 33.2527 1146.9 33.2527 1146.9Z" fill="#D9DADC"/>
<path d="M120.612 1327.34L128.682 1469.07C128.682 1469.07 153.085 1467.68 154.471 1428.02C154.471 1428.02 155.63 1448.31 147.052 1297.71L109.153 1299.87C109.153 1299.87 78.1179 1294.52 57.5476 1299.16C15.3766 1308.67 17.781 1350.9 17.781 1350.9L23.7481 1474L52.8222 1472.34L47.4167 1359.11C47.4167 1359.11 47.0493 1333.31 62.2589 1327.02C75.5274 1321.53 100.218 1325.9 108.671 1328.02C113.201 1329.16 120.612 1327.34 120.612 1327.34Z" fill="#DEDEDE"/>
<path d="M191.083 1137.91L199.153 1279.64C199.153 1279.64 174.75 1281.03 168.871 1241.78C168.871 1241.78 170.022 1262.07 161.452 1111.48L199.35 1109.32C199.35 1109.32 229.577 1100.48 250.541 1102.76C293.52 1107.42 295.924 1149.65 295.924 1149.65L303.968 1272.63L274.894 1274.29L267.412 1161.17C267.412 1161.17 264.848 1135.5 249.023 1130.97C235.217 1127.02 211.182 1134.16 203.025 1137.23C198.653 1138.88 191.083 1137.91 191.083 1137.91Z" fill="#D9DADC"/>
<path d="M278.443 1318.36L286.512 1460.08C286.512 1460.08 310.916 1458.69 312.302 1419.03C312.302 1419.03 313.461 1439.32 304.882 1288.73L266.984 1290.88C266.984 1290.88 235.949 1285.53 215.378 1290.17C173.207 1299.69 175.612 1341.92 175.612 1341.92L181.579 1465.01L210.653 1463.36L205.247 1350.13C205.247 1350.13 204.88 1324.33 220.09 1318.03C233.358 1312.54 258.049 1316.91 266.502 1319.04C271.032 1320.17 278.443 1318.36 278.443 1318.36Z" fill="#DEDEDE"/>
<path d="M348.914 1128.93L356.984 1270.66C356.984 1270.66 332.581 1272.04 326.701 1232.8C326.701 1232.8 327.853 1253.09 319.282 1102.49L357.18 1100.33C357.18 1100.33 387.408 1091.5 408.372 1093.77C451.351 1098.44 453.755 1140.67 453.755 1140.67L461.799 1263.65L432.725 1265.3L425.243 1152.19C425.243 1152.19 422.679 1126.51 406.853 1121.98C393.047 1118.03 369.013 1125.18 360.855 1128.25C356.484 1129.89 348.914 1128.93 348.914 1128.93Z" fill="#D9DADC"/>
<path d="M436.274 1309.37L444.343 1451.1C444.343 1451.1 468.746 1449.71 470.132 1410.04C470.132 1410.04 471.292 1430.34 462.713 1279.74L424.815 1281.9C424.815 1281.9 393.779 1276.55 373.209 1281.19C331.038 1290.7 333.443 1332.93 333.443 1332.93L339.41 1456.03L368.484 1454.37L363.078 1341.14C363.078 1341.14 362.711 1315.34 377.92 1309.05C391.189 1303.56 415.879 1307.93 424.332 1310.05C428.862 1311.19 436.274 1309.37 436.274 1309.37Z" fill="#DEDEDE"/>
<path d="M506.745 1119.94L514.814 1261.67C514.814 1261.67 490.411 1263.06 484.532 1223.81C484.532 1223.81 485.684 1244.1 477.113 1093.51L515.011 1091.35C515.011 1091.35 545.239 1082.51 566.203 1084.79C609.181 1089.45 611.586 1131.68 611.586 1131.68L619.63 1254.66L590.556 1256.32L583.073 1143.2C583.073 1143.2 580.51 1117.53 564.684 1113C550.878 1109.05 526.843 1116.19 518.686 1119.26C514.315 1120.91 506.745 1119.94 506.745 1119.94Z" fill="#D9DADC"/>
<path d="M594.104 1300.39L602.174 1442.11C602.174 1442.11 626.577 1440.72 627.963 1401.06C627.963 1401.06 629.122 1421.35 620.544 1270.76L582.646 1272.91C582.646 1272.91 551.61 1267.56 531.04 1272.2C488.869 1281.72 491.273 1323.95 491.273 1323.95L497.24 1447.04L526.314 1445.39L520.909 1332.16C520.909 1332.16 520.542 1306.36 535.751 1300.06C549.02 1294.57 573.71 1298.94 582.163 1301.07C586.693 1302.2 594.104 1300.39 594.104 1300.39Z" fill="#DEDEDE"/>
<path d="M664.576 1110.96L672.645 1252.68C672.645 1252.68 648.242 1254.07 642.363 1214.82C642.363 1214.82 643.514 1235.12 634.944 1084.52L672.842 1082.36C672.842 1082.36 703.07 1073.52 724.034 1075.8C767.012 1080.47 769.417 1122.7 769.417 1122.7L777.46 1245.68L748.386 1247.33L740.904 1134.22C740.904 1134.22 738.341 1108.54 722.515 1104.01C708.709 1100.06 684.674 1107.21 676.517 1110.28C672.145 1111.92 664.576 1110.96 664.576 1110.96Z" fill="#D9DADC"/>
<path d="M751.935 1291.4L760.005 1433.13C760.005 1433.13 784.408 1431.74 785.794 1392.07C785.794 1392.07 786.953 1412.37 778.375 1261.77L740.476 1263.93C740.476 1263.93 709.441 1258.58 688.871 1263.22C646.7 1272.73 649.104 1314.96 649.104 1314.96L655.071 1438.06L684.145 1436.4L678.74 1323.17C678.74 1323.17 678.372 1297.37 693.582 1291.08C706.85 1285.58 731.541 1289.96 739.994 1292.08C744.524 1293.22 751.935 1291.4 751.935 1291.4Z" fill="#DEDEDE"/>
<path d="M822.406 1101.97L830.476 1243.7C830.476 1243.7 806.073 1245.09 800.194 1205.84C800.194 1205.84 801.345 1226.13 792.774 1075.54L830.673 1073.38C830.673 1073.38 860.9 1064.54 881.864 1066.82C924.843 1071.48 927.247 1113.71 927.247 1113.71L935.291 1236.69L906.217 1238.35L898.735 1125.23C898.735 1125.23 896.171 1099.56 880.346 1095.03C866.54 1091.08 842.505 1098.22 834.348 1101.29C829.976 1102.94 822.406 1101.97 822.406 1101.97Z" fill="#D9DADC"/>
<path d="M909.766 1282.42L917.835 1424.14C917.835 1424.14 942.239 1422.75 943.625 1383.09C943.625 1383.09 944.784 1403.38 936.205 1252.79L898.307 1254.94C898.307 1254.94 867.272 1249.59 846.701 1254.23C804.53 1263.75 806.935 1305.98 806.935 1305.98L812.902 1429.07L841.976 1427.42L836.57 1314.19C836.57 1314.19 836.203 1288.38 851.413 1282.09C864.681 1276.6 889.372 1280.97 897.825 1283.09C902.355 1284.23 909.766 1282.42 909.766 1282.42Z" fill="#DEDEDE"/>
<path d="M980.237 1092.99L988.307 1234.71C988.307 1234.71 963.903 1236.1 958.024 1196.85C958.024 1196.85 959.176 1217.15 950.605 1066.55L988.503 1064.39C988.503 1064.39 1018.73 1055.55 1039.7 1057.83C1082.67 1062.5 1085.08 1104.73 1085.08 1104.73L1093.12 1227.71L1064.05 1229.36L1056.57 1116.25C1056.57 1116.25 1054 1090.57 1038.18 1086.04C1024.37 1082.09 1000.34 1089.24 992.178 1092.31C987.807 1093.95 980.237 1092.99 980.237 1092.99Z" fill="#D9DADC"/>
<path d="M1067.6 1273.43L1075.67 1415.16C1075.67 1415.16 1100.07 1413.77 1101.46 1374.1C1101.46 1374.1 1102.61 1394.39 1094.04 1243.8L1056.14 1245.96C1056.14 1245.96 1025.1 1240.61 1004.53 1245.25C962.361 1254.76 964.766 1296.99 964.766 1296.99L970.733 1420.09L999.807 1418.43L994.401 1305.2C994.401 1305.2 994.034 1279.4 1009.24 1273.11C1022.51 1267.61 1047.2 1271.99 1055.66 1274.11C1060.19 1275.25 1067.6 1273.43 1067.6 1273.43Z" fill="#DEDEDE"/>
<path d="M1138.07 1084L1146.14 1225.73C1146.14 1225.73 1121.73 1227.12 1115.86 1187.87C1115.86 1187.87 1117.01 1208.16 1108.44 1057.56L1146.33 1055.41C1146.33 1055.41 1176.56 1046.57 1197.53 1048.84C1240.5 1053.51 1242.91 1095.74 1242.91 1095.74L1250.95 1218.72L1221.88 1220.38L1214.4 1107.26C1214.4 1107.26 1211.83 1081.58 1196.01 1077.06C1182.2 1073.11 1158.17 1080.25 1150.01 1083.32C1145.64 1084.97 1138.07 1084 1138.07 1084Z" fill="#D9DADC"/>
<path d="M1225.43 1264.44L1233.5 1406.17C1233.5 1406.17 1257.9 1404.78 1259.29 1365.12C1259.29 1365.12 1260.45 1385.41 1251.87 1234.81L1213.97 1236.97C1213.97 1236.97 1182.93 1231.62 1162.36 1236.26C1120.19 1245.78 1122.6 1288.01 1122.6 1288.01L1128.56 1411.1L1157.64 1409.45L1152.23 1296.22C1152.23 1296.22 1151.86 1270.41 1167.07 1264.12C1180.34 1258.63 1205.03 1263 1213.49 1265.12C1218.02 1266.26 1225.43 1264.44 1225.43 1264.44Z" fill="#DEDEDE"/>
<path d="M1295.9 1075.02L1303.97 1216.74C1303.97 1216.74 1279.56 1218.13 1273.69 1178.88C1273.69 1178.88 1274.84 1199.17 1266.27 1048.58L1304.16 1046.42C1304.16 1046.42 1334.39 1037.58 1355.36 1039.86C1398.33 1044.53 1400.74 1086.76 1400.74 1086.76L1408.78 1209.73L1379.71 1211.39L1372.23 1098.28C1372.23 1098.28 1369.66 1072.6 1353.84 1068.07C1340.03 1064.12 1316 1071.27 1307.84 1074.34C1303.47 1075.98 1295.9 1075.02 1295.9 1075.02Z" fill="#D9DADC"/>
<path d="M1383.26 1255.46L1391.33 1397.19C1391.33 1397.19 1415.73 1395.8 1417.12 1356.13C1417.12 1356.13 1418.28 1376.42 1409.7 1225.83L1371.8 1227.99C1371.8 1227.99 1340.76 1222.64 1320.19 1227.28C1278.02 1236.79 1280.43 1279.02 1280.43 1279.02L1286.39 1402.12L1315.47 1400.46L1310.06 1287.23C1310.06 1287.23 1309.7 1261.43 1324.9 1255.13C1338.17 1249.64 1362.86 1254.01 1371.32 1256.14C1375.85 1257.28 1383.26 1255.46 1383.26 1255.46Z" fill="#DEDEDE"/>
<path d="M1453.73 1066.03L1461.8 1207.76C1461.8 1207.76 1437.4 1209.15 1431.52 1169.9C1431.52 1169.9 1432.67 1190.19 1424.1 1039.59L1462 1037.44C1462 1037.44 1492.22 1028.6 1513.19 1030.87C1556.17 1035.54 1558.57 1077.77 1558.57 1077.77L1566.61 1200.75L1537.54 1202.4L1530.06 1089.29C1530.06 1089.29 1527.49 1063.61 1511.67 1059.09C1497.86 1055.14 1473.83 1062.28 1465.67 1065.35C1461.3 1067 1453.73 1066.03 1453.73 1066.03Z" fill="#D9DADC"/>
<path d="M1541.09 1246.47L1549.16 1388.2C1549.16 1388.2 1573.56 1386.81 1574.95 1347.15C1574.95 1347.15 1576.11 1367.44 1567.53 1216.84L1529.63 1219C1529.63 1219 1498.59 1213.65 1478.02 1218.29C1435.85 1227.81 1438.26 1270.04 1438.26 1270.04L1444.22 1393.13L1473.3 1391.48L1467.89 1278.24C1467.89 1278.24 1467.53 1252.44 1482.74 1246.15C1496 1240.66 1520.69 1245.03 1529.15 1247.15C1533.68 1248.29 1541.09 1246.47 1541.09 1246.47Z" fill="#DEDEDE"/>
</g>
<defs>
<clipPath id="clip0_114_4182">
<rect width="1512" height="1233" fill="white"/>
</clipPath>
</defs>
</svg>
